<?xml version="1.0" encoding="UTF-8"?>
<svg id="Layer_1" data-name="Layer 1" xmlns="http://www.w3.org/2000/svg" viewBox="0 0 498.3 154.4">
  <defs>
    <style>
      .cls-1 {
        fill: #d8d3c5;
      }
    </style>
  </defs>
  <g id="Layer_1-2" data-name="Layer 1-2">
    <path class="cls-1" d="M11.7,92.5v-35.4H0v-16.8h12.7v-19.6l22.2-3.3v22.8h23.5v16.8h-23.5v30.5c0,16.6,0,20.7,14.8,20.7s5.2-.2,8.6-.3v12.2c-6.8,2.3-13.4,3.3-22.2,3.3-21.2,0-24.5-7.7-24.5-31"/>
    <path class="cls-1" d="M145.9,81.1c0-15.3-11.9-25.6-29.7-25.6s-29.5,10.3-29.5,25.6,11.9,25.4,29.5,25.4,29.7-10.3,29.7-25.4M65.2,81.1c0-26.1,20.4-43.4,51.1-43.4s51.2,17.3,51.2,43.4-20.4,43.4-51.2,43.4-51-17.3-51-43.4"/>
    <path class="cls-1" d="M209.1,81.4c0,15.7,13.7,25.1,29.2,25.1s29-9.5,29-25.1-12.2-25.9-29-25.9-29.2,9.8-29.2,25.9M290,81.7c0,25.6-19.1,42.7-42.4,42.7s-38.5-9.8-42.4-29h-.7v59h-23.2V40.3h23.8l-3.6,26.6h2c3.9-17.3,20.2-29.2,40.6-29.2s45.8,17.6,45.8,44"/>
    <path class="cls-1" d="M303.9,40.3h23.2v81.6h-23.2V40.3ZM301,13.1c0-8.8,5.5-13.1,14.2-13.1s14.5,4.2,14.5,13.1-5.5,13.2-14.5,13.2-14.2-4.2-14.2-13.2"/>
    <path class="cls-1" d="M480.8,37.8c-9.6,0-17.3,7.8-17.3,17.3,0,13.6,14.4,16.2,17,25.7,0,0,0,.3.4.3s.4-.3.4-.3c2.5-9.4,17-12.1,17-25.7s-7.8-17.3-17.3-17.3"/>
    <path class="cls-1" d="M463.5,107.1c0-9.6,7.8-17.3,17.3-17.3s17.3,7.8,17.3,17.3-7.8,17.3-17.3,17.3-17.3-7.8-17.3-17.3"/>
    <path class="cls-1" d="M422,80.7c0-15.7-13.9-25.3-29.3-25.3s-28.9,9.6-28.9,25.3,12.1,25.8,28.9,25.8,29.3-9.8,29.3-25.8M341,80.4c0-25.6,19.2-42.7,42.5-42.7s38.3,9.8,42.2,29h2.4l-2.1-26.4h23.5v81.5h-23.8l3.6-26.6h-2c-3.9,17.1-20.2,29.2-40.6,29.2s-45.8-17.6-45.8-44"/>
  </g>
</svg>